<svg width="32" height="32" viewBox="0 0 32 32" fill="none" xmlns="http://www.w3.org/2000/svg">
  <!-- Racing helmet shape -->
  <path d="M16 4C10.5 4 6 8.5 6 14C6 16.5 7 18.8 8.5 20.5L10 22H22L23.5 20.5C25 18.8 26 16.5 26 14C26 8.5 21.5 4 16 4Z" fill="#DC0000"/>
  
  <!-- Visor -->
  <ellipse cx="16" cy="14" rx="7" ry="4" fill="#1A1A1A" opacity="0.8"/>
  
  <!-- Visor highlight -->
  <ellipse cx="16" cy="13" rx="5" ry="2" fill="#333333" opacity="0.6"/>
  
  <!-- Chin strap -->
  <path d="M10 22C10 24 12 26 16 26C20 26 22 24 22 22" stroke="#1A1A1A" stroke-width="1.5" fill="none"/>
  
  <!-- Racing stripe -->
  <rect x="14.5" y="4" width="3" height="10" fill="#FFD700" opacity="0.9"/>
  
  <!-- Helmet details -->
  <circle cx="12" cy="12" r="1" fill="#FFD700"/>
  <circle cx="20" cy="12" r="1" fill="#FFD700"/>
</svg>
